<svg xmlns="http://www.w3.org/2000/svg" viewBox="0 0 980.04 237.02"><path d="M27,196c-5.86-4.07-4.05-15.39,3.47-17.31,5.07-.75,14.48-.38,21.84-.31,25.61-.38,65.41.3,91-.25,97.29.55,194.77-.09,292.25.16,131.11-.13,264.6,0,395.59-.12,41.41.09,78.53,0,120.49,0,12.92,1.25,38.29-3.07,48.09,2.61,4.13,5,3,15.12-5,16.77-194.31.87-390.39.07-583.95.4-82.56,0-163.06,0-245.54,0-29.24,0-58.61,0-88.44,0-16.3-1.22-35.4,2.59-49.87-2.05Zm98.44-3c6.64-.77,3.41-14.08-3.63-9C117.6,187.6,121.23,194,125.42,192.92Zm35.18.06c5.57-1.86,2.86-11.84-3-9.84C152.46,185,154.21,195.07,160.6,193Zm125.85-.18c3.81-2.47,2.28-9.69-2.3-9.6C276.25,183.27,279.16,196.84,286.45,192.8Zm173.06,1.3c5-2.14,2.49-11.33-3.16-9.87C450.35,186.49,453.06,196.1,459.51,194.1Zm141.94-1c4.5.22,6.16-8.17,1.42-10C595.14,180.57,594.27,193.67,601.45,193.1Zm185.63-2.42c5.91-2.41,1.27-12.83-3.76-9.25-5.07,1.72-2.17,12.12,3.76,9.25Zm147.87.56c8-4.84-4-15.38-6.54-5.91-1,3.64,2.4,7.8,6.54,5.91ZM31.79,163.84c-6.72-4.94-4.76-8.38-4.95-17.79.2-12.19.63-25.59.72-37.3.07-9.6.19-3.25.47-22.51,0-13.33-1.87-42.1,17-31.41C58.46,68.73,71.76,93,83,104.94c3.81-4,10.82-14.17,16-20.66,6.23-8.33,10-13.17,19-24.92,3.47-3.94,2.81-4.55,6.59-5.8,4.75-1.58,10.27-.07,12.8,4.38,2.29,1.83.25,40.31.52,44.17-.89,15.23.47,42.67-2,56.54a9.93,9.93,0,0,1-18.21.33c-2.89-15.51,1.36-47.78-.37-63.37-5.93,7.35-17.61,21.61-23.52,29.05C78.39,147,68.33,121.09,58.23,108c-.9-1-4.44-7.21-8.47-11.92-.5.14-.6,5.77-.5,7.39-.28,8.67-.69,31.28-.8,39.9C49.15,155,46.94,169,31.79,163.84ZM129,159.38c7.43-3.17-.74-14.73-5.43-7.86C120.83,155.21,124.17,161.29,129,159.38ZM40.63,68.86c6.68-2.87-.07-14.57-5.41-8.15C32,64.83,36,70.63,40.63,68.86Zm114.42,95.05c-12.66-7.43,6-29.76,7-34.56,8.51-15,16.21-30.7,24.36-45.39,8.19-12.48,13.71-38.82,30.17-28.79,6.47,8.81,10,20.45,15.62,29.66,5.85,13.06,15.91,34,21.4,44,3.77,11.24,20.59,31.18,1,36-6.6,2.51-11.11-7-13.82-11.41.5-.31-3.89-9.58-4.48-8.11-15.62-.13-36.35-.07-52.36,0-7-.21-5.17-.46-8.27,5.2-4.44,9.88-9.39,18.5-20.63,13.37Zm8.67-6c7.28-4.72-2.79-14.47-6.72-6.42C155.34,154.83,159.61,160.73,163.72,157.87Zm29.2-34c9.8-.05,22.94-.14,32.65,0,.61-2-4.24-10.12-5-12.74-2.88-6.26-4.36-10.31-7.67-17.48-.83-1.92-2.76-5.69-3.42-7.82-1.44-1.26-5.86,10.57-6.69,11.26-.5.73-11.19,21.42-13.32,25.75-.52,1-.28,1.07,3.45,1Zm89.43,39.77c-8.18-3.88-3.93-17.6-4.73-25,.14-9.88.47-24.53.73-34.39,1.13-14.25-1.44-33.06,2.43-46.74,3.12-4.6,13.56-6.37,17.29-1.26,5.53,7.8.69,35.22,1.92,46.89,5.17-4.35,10.88-10.74,15.77-15.57,6.34-6.37,12.06-12.2,18.88-19,16.53-15.53,12.55-15.84,22.2-15.25,4.91.69,6.72,4,8.45,8.12,1.73,5.75-5.73,11.86-8.9,15.57C349.62,84.29,341.5,91.77,334.54,99c-3.62,3.69-3.83,4.06-3,5,1.7,1.24.62.78,2.4,3,6.52,8.06,8.66,10.7,9.26,11.42,7.88,9.68,14.11,17.34,21.2,26.08,10.77,10,2.87,22.64-9.36,20.41-7-2.28-9.13-10.35-14.82-15.56-7.55-9.86-18-25-25.8-33-4.5,4.76-8.05,8.34-15.06,16.15-.43,13.79,2.89,38.55-17,31.11Zm7.51-4.07c5.8-2.14,2.52-12.76-3.84-9.48C281.24,152.76,284.34,161.39,289.86,159.57ZM356,66.88c6-1.37,3.66-12.42-2.83-9.84C347.78,59.32,350.4,68.57,356,66.88Zm35.89,97.17c-6.87-6.16-4.64-4.47-4.9-17.82.15-8.61.42-27.66.62-34.11.23-5.44.38-27.47.62-32.43.66-8.29-2.36-23.58,8.44-25.09,14.42-.9,24.05-.19,39.71-.38,11.31.71,16.32-1.65,25.41,1.21C473.3,62.06,465.16,78,452,75.28c-14.42.36-31-.4-41.64.37-1.09,3.89-.58,18.9-.84,23.19,3.65.28,9.57.06,15.33.15,9.59.66,27.25-2,32,2.38,4.7,4,4.26,10.76.94,15.15-5.11,6.73-33.69,2.72-48.08,3.63-1.61,1-.43,11.21-1,15.47-.21,7-.09,8.38.7,8.26,12.06-.17,20.21,0,33-.13,10.46-.16,29-1.85,25.71,13.1-3.06,12.38-18.49,7.1-29.71,8.22-10.43-.34-41.32,1.37-46.64-1Zm67.78-4.18c3.94-1,4.38-6.85,1.58-9C453.5,145.32,450.27,161.79,459.65,159.87Zm-59-45.75c5.68.83,6.59-9.89.52-10.26C394.12,103.43,395.42,114.61,400.68,114.12Zm100.06,52a36.82,36.82,0,0,1-16.86-11c-1.16-3.09-1.17-11.57,2.95-13.76,8.44-5.93,11.1.2,19.71,3.89,4.31,2,15.09,4.52,19.5,4.6,17.62,2.86,33.9-18.29,12.56-26.68-12.5-5.54-31.45-8.12-41.16-15.3-13.38-8.53-14.44-27.79-6.35-41.14C506.2,47.09,542,46.12,560.22,60.37c3.9,3.8,5,9.21,1.68,13.93-8.72,9.62-19.79-2.39-30.57-4.12-14-2.24-31.11,6.73-22.18,20.53,14.44,11.84,43.84,11.14,55.64,25.68,12,15.88,2.35,43.14-16.15,49-14.1,6.54-33.06,5.69-47.9.8Zm58.46-28.9c4.74-1,5.22-8.86.08-10.2C551.8,125.67,551.92,138.31,559.2,137.27Zm-3-64.86c4.57-2.09,3.22-9.86-1.77-10C547.15,62.38,549.09,75.19,556.17,72.41Zm1.35,89c-.07-.09,1.19-.4.84,0S557.46,161.64,557.52,161.39ZM32.44,37.5c-2.51-1.79-4.09-3.54-4.21-6.56-.94-10.51,7.49-12.35,16.88-11.69,7.23.08,12.62-.05,20.63,0,28.81,0,39.76.09,71.66.08,70.1.06,136.33.3,206,.13,155.3.35,302.59.49,455,.52,42.5.29,97.65.08,143.05.23,16,.13,25.87,0,40.83,0,3.22,0,4.53.15,6.71,0,1.25-.14,7.75,1.34,7.43,1.64-.12.15.13.54.65.87,4.86,4.4,2.52,16.94-5.72,17-193,.41-385.75-.52-578.42-.37-74.39-.32-156.79-.1-232.47-.33-27.47,0-59.1,0-88.62-.09-19-.94-42.11,2.07-59.4-1.48Zm10.29-3.73c4-1.46,4.28-9.37-1-9.85C34,22.59,35.32,36.13,42.73,33.77Zm169.83,2c6.81-2.5.56-14.17-5-8.48A5.11,5.11,0,0,0,212.56,35.77Zm145.7-1.24c6.87-2,2.25-13.79-3.83-9.31C350.54,28.22,352.93,35.52,358.26,34.53Zm198.3-.76c6.37-1.68,3.92-12.24-2.54-10C549.29,25.66,550.47,34.58,556.56,33.77Zm185,1.49c.81.31,4.52-.41,4-2.17-.3-.32-.25-.36.23-.25,1.64-.34.85-5-.45-6.17C738.76,20.1,733.61,34.41,741.6,35.26ZM987,34.73c6.11-2,2.5-13.23-3.69-9.4-4.84,2.57-1.78,11,3.69,9.4ZM595.47,164.45c-8.51-4.89-5.2-13.33-5.6-23.09,0-6.9.35-20.84.48-25.71.3-8.54.44-30.91.76-37.29.09-5.42-.15-20.33,3.15-21.14,3.57-4.75,8.74-4.09,13.2-4,5,.09,5.56-.17,11.69,0,34.57.51,37.2-2.18,54.51,18,7.91,14,6.41,39.93-6.86,51.35-11.83,13.64-40.95,10.69-55,11-1.53,12.1,3.84,37.67-16.36,31Zm6-5.09c5.24-1.34,4.09-10.76-1.86-10C592.82,150.3,595.21,161.31,601.48,159.36Zm13.46-46.26c8.62-1,24.7,2.32,32.21-2.51,20.94-11.37,9-41.54-15.36-36.95-3.74,0-11.84,0-15.51.15-1.88-.09-4.53-.7-3.38.75-.86,7.69-.41,25.22-.78,31.46C612.26,111.9,610.51,113.27,614.94,113.1Zm53.27-12.58c4.64,1,7.3-8.89.93-10C662.22,88.82,662,101.09,668.21,100.52ZM485.7,138.79a.36.36,0,0,1,.39-.25C486.69,138.72,485.43,139.62,485.7,138.79Zm198.87,25.69c-6.85-4.42-4.58-13.48-.26-20,3.22-6,7.4-14,10.13-19,8.09-15.54,13.12-24.31,20.6-38.86,2.41-4.68,6.28-11.65,8.71-16.24,4.08-9,10.75-21.48,21.87-14.91,5.34,4.89,11.23,21.67,14.57,27.24,4.25,8.77,7.67,15.62,11.89,24.51,4.86,9.46,11.34,23.63,16.48,33.91,2.2,5.14,6.22,10.1,5.17,16-1.45,5.66-7.75,9.8-13.68,8.24-7.4-2-7.42-9.32-11.18-15.4-1.45-6.62-10.32-2.9-14.32-3.85-9.29-.13-32.55.12-41.36.06-3.61-.27-5.78-.73-6.9,3.62C701.38,159,698,170.32,684.57,164.48Zm100.82-5.36c5.83-1.71,2.44-12.61-3.64-9.39C776.44,152.28,780.71,161.52,785.39,159.12ZM722,124.67c7.09-.2,21.14.16,28-.31,7.12,1,5.88.12,2.32-7.78-4.74-11.08-7.69-16.85-11.71-27,.12-.36-1.42-4-2.11-2.8-2.37,3.38-4.22,7.81-6.59,12.3.29,0-8.19,15.22-10.8,20.79C719.39,123.16,717.48,125.26,722,124.67ZM485,91.38c-.61-.65.44-.24.49.11S485.51,91.92,485,91.38Zm351.78,73.17c-38.3-11.57-44.11-65.29-20.21-94,19.59-22.55,62.5-24.78,82-1.15,3.9,5.31-1.07,17.14-9.82,15.74C882,84.71,874.9,74,867,74c-27.65-5.1-48.41,17.19-44,43.5,2,28.85,38.08,39.79,58.89,21.39,5.59-5.48,16.38-3.57,18.16,5.1C898.55,169.51,855,170.3,836.77,164.55Zm-22.46-44c5.34-1.4,4.58-10.31-1.23-10.19C806.17,110.56,808.05,122,814.31,120.59Zm.35-3.59a.33.33,0,0,1,.65.15A.33.33,0,0,1,814.66,117Zm76.45-37.14c6.33-2.78,0-13.66-5-8.56-4.07,3.42-.22,11.18,5,8.56Zm-2,81.4a.85.85,0,0,1,.6-.2C890.44,161.38,888.65,162,889.15,161.26Zm33.35,2.35c-6.06-2.48-5.31-10.62-5.14-16,0-7.42.77-33.66.7-35.37,1-12.75-1.24-45.8,2.81-54.33,5.24-7.5,26.91-3,34.75-4.22,7.24,0,34.5-.34,35,.79,6.78,1.54,8.38,8,6.19,14-5.7,11.71-31.92,4.57-45.31,6.46-3.65.48-10.57-1.35-11,1.48-.21,4.25-.47,17.65-.47,21.57,1.69,1.44,8.37.26,10.72.54,5.69,0,15.85.23,21.35-.21,2.84.31,13.27.1,14.49,2.15,6.39,4,4.34,14.32-.38,18-8.52,2.2-15.94,1.27-25.46,1.38C931,120,941.6,115.55,939.08,143c.49,1.58,32.11-.18,35.68.43,13.78-1.22,29.74.93,22.76,16.64-8,8.83-26.48,3.1-38.42,4.73-9.85-.46-27.75,1.08-36.6-1.18Zm10.78-4.35c4.27-1,4.27-8.77-.08-9.89C925.3,147.37,925.51,161.13,933.28,159.26Zm56,.2a5.25,5.25,0,0,0-.43-10C981.57,148,981.89,161.45,989.3,159.46ZM713.57,40.16a1.32,1.32,0,0,1,.8.18C714.89,40.67,713,40.23,713.57,40.16Z" transform="translate(-23.5 -19.13)"/><path d="M795.92,256.14a3.87,3.87,0,0,1-3.09-1.34,5.16,5.16,0,0,1-1.37-3l-.24-22.31-10.75,13.86a4.18,4.18,0,0,1-3.39,1.63,3.69,3.69,0,0,1-3.33-1.73l-11.16-13.88.23,22.31a3.85,3.85,0,0,1-1.34,3.08,5.15,5.15,0,0,1-3,1.38,4.09,4.09,0,0,1-3.08-1.34,5.1,5.1,0,0,1-1.37-3l-.49-35.18a4.21,4.21,0,0,1,2.91-4.09,4,4,0,0,1,4.76,1.37l15.41,19.18L792,213.47c1.38-1.72,2.81-2.09,5-1.28,1.86.74,2.94,2,2.84,4l.17,35.11a3.86,3.86,0,0,1-1.34,3.08A3.27,3.27,0,0,1,795.92,256.14Z" transform="translate(-23.5 -19.13)"/><path d="M849,249.4a5.59,5.59,0,0,1,.27,3.43,3.46,3.46,0,0,1-2.24,2.55c-.71.18-1.1.43-1.82.62a3.77,3.77,0,0,1-3.84-2.52L838,247l-20.95.19L814,253.64a4.09,4.09,0,0,1-2.49,2.16,3.93,3.93,0,0,1-3.29-.38,4.09,4.09,0,0,1-2.16-2.49,3.89,3.89,0,0,1,.38-3.29l17.35-35a3.86,3.86,0,0,1,3.85-2.2,4.12,4.12,0,0,1,3.91,2.19ZM833.5,238.3l-6.15-12.13-6,12.19Z" transform="translate(-23.5 -19.13)"/><path d="M854.46,216.19a3.84,3.84,0,0,1,1.34-3.08,5.12,5.12,0,0,1,3-1.38l13.83,0a21.94,21.94,0,0,1,15.52,37.41,20.74,20.74,0,0,1-15.55,6.42l-13.84,0a3.86,3.86,0,0,1-3.08-1.34,5.13,5.13,0,0,1-1.37-3Zm8.9,30.59h9.44a13.17,13.17,0,0,0,9-22.68,11.6,11.6,0,0,0-9.32-3.7l-9.43,0Z" transform="translate(-23.5 -19.13)"/><path d="M901,216.13a3.86,3.86,0,0,1,1.34-3.08,5.16,5.16,0,0,1,3-1.37l18.87,0a15,15,0,0,1,11.18,4.44,15.34,15.34,0,0,1,4.68,11.13,17.38,17.38,0,0,1-2.06,8,15.33,15.33,0,0,1-5.58,5.54l6.8,7.54a3.48,3.48,0,0,1,1,3.25,3.84,3.84,0,0,1-1.34,3.08,3.39,3.39,0,0,1-2.93,1.06,4.86,4.86,0,0,1-3.4-1.41l-10.11-11L909.71,243l-.06,8.08a3.84,3.84,0,0,1-1.34,3.08,5.12,5.12,0,0,1-3,1.38,3.85,3.85,0,0,1-3.08-1.34,5.18,5.18,0,0,1-1.38-3Zm8.58,18.05,14.48.09a5.78,5.78,0,0,0,4.81-2,7.29,7.29,0,0,0,2.08-4.95,5.78,5.78,0,0,0-2-4.81,7.27,7.27,0,0,0-5-2.08l-14.48-.1Z" transform="translate(-23.5 -19.13)"/><path d="M950.57,255.18a3.85,3.85,0,0,1-3.08-1.34,5.18,5.18,0,0,1-1.38-3L946,215.73a3.86,3.86,0,0,1,1.34-3.08,5.07,5.07,0,0,1,3-1.37,3.81,3.81,0,0,1,3.09,1.34,5.14,5.14,0,0,1,1.37,3l.17,35.11a3.85,3.85,0,0,1-1.34,3.08C953,255,951.93,255.13,950.57,255.18Z" transform="translate(-23.5 -19.13)"/><path d="M963.47,215.81a3.82,3.82,0,0,1,1.34-3.08,5.15,5.15,0,0,1,3-1.38l13.84,0a21.94,21.94,0,0,1,15.52,37.41,20.74,20.74,0,0,1-15.56,6.42l-13.83.05a3.81,3.81,0,0,1-3.08-1.35,5.06,5.06,0,0,1-1.38-3Zm8.9,30.59,9.44,0a13.18,13.18,0,0,0,9-22.68,11.64,11.64,0,0,0-9.32-3.71H972Z" transform="translate(-23.5 -19.13)"/></svg>